<svg width="560" height="446" viewBox="0 0 560 446" fill="none" xmlns="http://www.w3.org/2000/svg">
<path d="M99.0625 173.313C101 174 101 174 103 175C103 175.99 103 176.98 103 178C104.749 178.081 106.5 178.139 108.25 178.188C109.225 178.222 110.199 178.257 111.203 178.293C114.404 177.958 115.587 177.039 118 175C120 174.938 120 174.938 122 176C122.619 176.949 123.238 177.898 123.875 178.875C126.304 182.447 127.984 183.525 132 185C134.866 185.28 136.798 185.059 139.562 184.25C142 184 142 184 144.312 185.375C146.18 188.28 146.113 188.851 145.875 192.125C145.582 197.997 148.21 202.619 152 207C154.101 207.835 154.101 207.835 156 208C156.688 210.813 156.688 210.813 157 214C155.502 216.331 154.313 216.899 151.688 217.75C145.377 220.685 142.307 226.72 140 233C137.188 233.25 137.188 233.25 134 233C133.319 232.041 133.319 232.041 132.625 231.063C131.02 228.571 131.02 228.571 127.125 228.188C124.519 227.963 122.777 228.05 120.188 228.625C118 229 118 229 116.125 228C114.394 224.922 115.414 222.4 116 219C115.64 216.188 115.64 216.188 115 214C114.278 214.083 113.556 214.165 112.812 214.25C108.956 213.907 107.583 212.87 105 210C103.87 206.154 103.719 202.844 105 199C103.928 198.856 102.855 198.711 101.75 198.563C99.0743 198.161 96.6077 197.652 94 197C93.01 197 92.02 197 91 197C90.4019 196.381 89.8037 195.763 89.1875 195.125C84.6617 190.729 78.7203 190.291 72.6289 190.332C69.169 191.211 68.3344 192.531 66.4375 195.5C66.0031 196.335 65.5687 197.171 65.1211 198.031C64.7511 198.681 64.3812 199.331 64 200C63.34 200 62.68 200 62 200C62 201.65 62 203.3 62 205C64.9171 204.691 67.8336 204.378 70.75 204.063C71.575 203.975 72.4 203.888 73.25 203.799C74.0492 203.712 74.8484 203.625 75.6719 203.535C76.405 203.457 77.1382 203.378 77.8936 203.297C80.0153 203.041 80.0153 203.041 82.0942 202.439C84.8635 201.801 87.2165 202.504 90 203C92.2908 203.065 94.5834 203.086 96.875 203.063C98.0274 203.053 99.1798 203.044 100.367 203.035C101.67 203.018 101.67 203.018 103 203C102.505 204.485 102.505 204.485 102 206C93.585 206.495 93.585 206.495 85 207C85.99 213.93 86.98 220.86 88 228C93.5784 228.316 93.5784 228.316 97 227C97.2887 226.175 97.5775 225.35 97.875 224.5C99 222 99 222 101.375 221C104 221 104 221 106.25 222C108.711 224.812 108.725 227.35 109 231C110.093 231.309 111.186 231.619 112.312 231.938C114.554 232.583 116.787 233.262 119 234C119.144 234.887 119.289 235.774 119.438 236.688C119.623 237.781 119.809 238.874 120 240C120.062 240.866 120.124 241.733 120.188 242.625C121.4 246.17 123.849 247.19 127 249C126.125 253.875 126.125 253.875 125 255C122 255.125 122 255.125 119 255C118 254 118 254 117.875 250.125C117.725 247.947 117.725 247.947 117 246C113.638 244.023 113.638 244.023 110 243C109.01 242.01 109.01 242.01 108 241C108 239 108 237 108 235C105.238 232.238 102.793 232.421 99 232C99 231.34 99 230.68 99 230C97.3502 230.422 95.7052 230.863 94.0625 231.313C93.146 231.556 92.2295 231.8 91.2852 232.051C90.5311 232.364 89.777 232.677 89 233C88.67 233.99 88.34 234.98 88 236C83.8156 235.477 80.6176 233.897 76.9258 231.992C74.6511 230.82 72.4442 229.768 70 229C68.515 229.495 68.515 229.495 67 230C66.01 229.34 65.02 228.68 64 228C63.8556 226.928 63.7113 225.855 63.5625 224.75C62.9297 220.531 61.4628 218.416 59 215C59 214.34 59 213.68 59 213C57.3294 212.814 57.3294 212.814 55.625 212.625C52 212 52 212 50 210C49.6875 206.5 49.6875 206.5 50 203C53 201 53 201 55.875 200.313C59.6374 198.732 60.6997 197.076 62.8359 193.727C64 192 64 192 66.25 190C68.6881 187.214 68.5407 184.609 69 181C70.1875 179.063 70.1875 179.063 72 178C75.1875 177.813 75.1875 177.813 78 178C78.33 178.66 78.66 179.32 79 180C83.62 180 88.24 180 93 180C93.33 178.35 93.66 176.7 94 175C97 173 97 173 99.0625 173.313ZM87.5 181.938C86.7059 182.112 85.9119 182.286 85.0938 182.465C82.9611 182.931 82.9611 182.931 81 184C81.33 185.32 81.66 186.64 82 188C88.4127 189.629 94.5258 191.158 101 189C100.887 187.041 100.887 187.041 100 185C97.5287 183.845 97.5287 183.845 95 183C94.67 182.34 94.34 181.68 94 181C91.7074 181 89.7382 181.44 87.5 181.938ZM103 182C103.66 183.32 104.32 184.64 105 186C105.99 186 106.98 186 108 186C107.938 186.908 107.876 187.815 107.812 188.75C108.017 192.29 108.646 193.449 111 196C111.99 195.67 112.98 195.34 114 195C114.884 193.038 114.884 193.038 115.312 190.688C115.494 189.908 115.676 189.128 115.863 188.324C116.217 185.603 116.217 185.603 114 182C110.37 182 106.74 182 103 182ZM119 187C118.418 189.425 118.418 189.425 118.312 192.125C118.247 193.035 118.181 193.945 118.113 194.883C118.076 195.581 118.039 196.28 118 197C119.794 198.194 119.794 198.194 122 199C123.803 198.066 125.605 197.12 127.316 196.027C129.169 194.897 130.859 194.343 133 194C133 192.35 133 190.7 133 189C131.733 188.326 130.461 187.661 129.188 187C128.48 186.629 127.772 186.258 127.043 185.875C123.46 184.34 122.237 184.842 119 187ZM98 192C97.34 192.66 96.68 193.32 96 194C96.5659 194.193 97.1318 194.387 97.7148 194.586C98.4483 194.846 99.1818 195.107 99.9375 195.375C101.034 195.758 101.034 195.758 102.152 196.148C104 197 104 197 105 199C105.66 199 106.32 199 107 199C106.67 197.02 106.34 195.04 106 193C104.721 192.794 103.443 192.588 102.125 192.375C101.046 192.201 101.046 192.201 99.9453 192.023C99.3034 192.016 98.6614 192.008 98 192ZM128 199C126.346 199.698 124.683 200.375 123 201C123 202.32 123 203.64 123 205C124.562 205.17 126.125 205.336 127.688 205.5C128.558 205.593 129.428 205.686 130.324 205.781C132.897 205.992 135.42 206.037 138 206C138.33 206.66 138.66 207.32 139 208C141.118 208.687 141.118 208.687 143.562 209.125C144.389 209.293 145.215 209.46 146.066 209.633C146.704 209.754 147.343 209.875 148 210C148 208.68 148 207.36 148 206C147.34 206 146.68 206 146 206C145.711 205.051 145.423 204.103 145.125 203.125C144.232 199.948 144.232 199.948 142 198C136.496 195.956 132.831 195.242 128 199ZM62 208C60.9828 209.773 60.9828 209.773 61 212C62.1811 214.437 62.1811 214.437 63.9375 216.75C64.5034 217.549 65.0693 218.348 65.6523 219.172C66.0971 219.775 66.5418 220.378 67 221C68.8678 220.95 68.8678 220.95 71 220C73.2408 217.284 73.2408 217.284 75.25 214C76.3096 212.36 76.3096 212.36 77.3906 210.688C79.0856 208.379 79.0856 208.379 79 207C76.7292 206.973 74.4584 206.954 72.1875 206.938C70.9229 206.926 69.6584 206.914 68.3555 206.902C65.0039 206.838 65.0039 206.838 62 208ZM122 207C120.291 208.579 120.291 208.579 119 211C119.185 216.051 119.185 216.051 122 220C124.97 217.36 127.94 214.72 131 212C130.67 211.01 130.34 210.02 130 209C128.126 208.198 128.126 208.198 125.938 207.813C125.204 207.654 124.471 207.495 123.715 207.332C123.149 207.222 122.583 207.113 122 207ZM79.5625 211.125C77.5399 213.552 76.8696 215.99 76 219C75.34 219 74.68 219 74 219C72.6783 221.177 71.9868 222.552 72.0625 225.125C72.8864 227.214 72.8864 227.214 75.25 228.25C77.9876 228.997 80.183 229.057 83 229C83.0271 226.771 83.0465 224.542 83.0625 222.313C83.0741 221.071 83.0857 219.83 83.0977 218.551C83.0148 215.538 82.7084 212.917 82 210C80.827 209.897 80.827 209.897 79.5625 211.125ZM132 214C132 214.66 132 215.32 132 216C131.34 216 130.68 216 130 216C126.697 219.452 126.697 219.452 126 224C130.422 226.568 133.511 225.718 138.207 224.508C138.799 224.34 139.39 224.173 140 224C140 223.34 140 222.68 140 222C140.66 222 141.32 222 142 222C142 221.34 142 220.68 142 220C143.32 219.34 144.64 218.68 146 218C146 217.34 146 216.68 146 216C146.66 215.67 147.32 215.34 148 215C148 214.34 148 213.68 148 213C139.722 210.705 139.722 210.705 132 214Z" fill="#CDCECE"/>
<path d="M78 178C78.66 179.65 79.32 181.3 80 183C81.98 182.67 83.96 182.34 86 182C83 184 83 184 81 184C81.33 184.99 81.66 185.98 82 187C87.9126 189.519 94.702 189.237 101 189C101.495 190.485 101.495 190.485 102 192C100.68 192.33 99.36 192.66 98 193C100.31 194.32 102.62 195.64 105 197C105 197.66 105 198.32 105 199C101.267 198.497 97.6507 197.913 94 197C93.01 197 92.02 197 91 197C90.4019 196.381 89.8037 195.762 89.1875 195.125C84.6617 190.729 78.7203 190.291 72.6289 190.332C69.169 191.211 68.3344 192.531 66.4375 195.5C66.0031 196.335 65.5687 197.171 65.1211 198.031C64.7511 198.681 64.3812 199.331 64 200C63.34 200 62.68 200 62 200C62 201.65 62 203.3 62 205C64.9171 204.691 67.8336 204.378 70.75 204.062C71.575 203.975 72.4 203.888 73.25 203.799C74.0492 203.712 74.8484 203.625 75.6719 203.535C76.405 203.457 77.1382 203.378 77.8936 203.297C80.0153 203.041 80.0153 203.041 82.0942 202.439C84.8635 201.801 87.2165 202.504 90 203C92.2908 203.065 94.5834 203.086 96.875 203.062C98.0274 203.053 99.1798 203.044 100.367 203.035C101.67 203.018 101.67 203.018 103 203C102.505 204.485 102.505 204.485 102 206C93.585 206.495 93.585 206.495 85 207C85.99 213.93 86.98 220.86 88 228C93.5784 228.316 93.5784 228.316 97 227C97.2887 226.175 97.5775 225.35 97.875 224.5C99 222 99 222 101.375 221C104 221 104 221 106.25 222C108.711 224.812 108.725 227.35 109 231C110.093 231.309 111.186 231.619 112.312 231.937C114.554 232.583 116.787 233.262 119 234C119.144 234.887 119.289 235.774 119.438 236.687C119.623 237.781 119.809 238.874 120 240C120.062 240.866 120.124 241.732 120.188 242.625C121.4 246.17 123.849 247.19 127 249C126.125 253.875 126.125 253.875 125 255C122 255.125 122 255.125 119 255C118 254 118 254 117.875 250.125C117.725 247.947 117.725 247.947 117 246C113.638 244.023 113.638 244.023 110 243C109.34 242.34 108.68 241.68 108 241C108 239 108 237 108 235C105.238 232.238 102.793 232.421 99 232C99 231.34 99 230.68 99 230C97.3502 230.422 95.7052 230.863 94.0625 231.312C93.146 231.556 92.2295 231.8 91.2852 232.051C90.5311 232.364 89.777 232.677 89 233C88.67 233.99 88.34 234.98 88 236C83.8156 235.477 80.6176 233.897 76.9258 231.992C74.6511 230.82 72.4442 229.768 70 229C68.515 229.495 68.515 229.495 67 230C66.01 229.34 65.02 228.68 64 228C63.8556 226.927 63.7113 225.855 63.5625 224.75C62.9297 220.531 61.4628 218.416 59 215C59 214.34 59 213.68 59 213C57.3294 212.814 57.3294 212.814 55.625 212.625C52 212 52 212 50 210C49.6875 206.5 49.6875 206.5 50 203C53 201 53 201 55.875 200.312C59.6374 198.732 60.6997 197.076 62.8359 193.727C64 192 64 192 66.25 190C68.6881 187.214 68.5407 184.609 69 181C71.2721 177.293 73.9209 177.728 78 178ZM62 208C60.9828 209.773 60.9828 209.773 61 212C62.1811 214.437 62.1811 214.437 63.9375 216.75C64.5034 217.549 65.0693 218.348 65.6523 219.172C66.0971 219.775 66.5418 220.378 67 221C68.8678 220.95 68.8678 220.95 71 220C73.2408 217.284 73.2408 217.284 75.25 214C76.3096 212.36 76.3096 212.36 77.3906 210.687C79.0856 208.379 79.0856 208.379 79 207C76.7292 206.973 74.4584 206.954 72.1875 206.937C70.9229 206.926 69.6584 206.914 68.3555 206.902C65.0039 206.838 65.0039 206.838 62 208ZM79.5625 211.125C77.5399 213.552 76.8696 215.99 76 219C75.34 219 74.68 219 74 219C72.6783 221.177 71.9868 222.552 72.0625 225.125C72.8864 227.214 72.8864 227.214 75.25 228.25C77.9876 228.997 80.183 229.057 83 229C83.0271 226.771 83.0465 224.542 83.0625 222.312C83.0741 221.071 83.0857 219.83 83.0977 218.551C83.0148 215.538 82.7084 212.917 82 210C80.827 209.897 80.827 209.897 79.5625 211.125Z" fill="#797A78"/>
<path d="M125 208C126.98 208 128.96 208 131 208C131.103 208.639 131.206 209.279 131.312 209.938C131.653 210.958 131.653 210.958 132 212C132.99 212.33 133.98 212.66 135 213C134.01 213.33 133.02 213.66 132 214C132 214.66 132 215.32 132 216C131.34 216 130.68 216 130 216C129.67 216.99 129.34 217.98 129 219C128.34 219 127.68 219 127 219C126.67 220.65 126.34 222.3 126 224C127.299 224.186 128.599 224.371 129.938 224.562C130.668 224.667 131.399 224.771 132.152 224.879C132.762 224.919 133.372 224.959 134 225C134.33 224.67 134.66 224.34 135 224C136.666 223.959 138.334 223.957 140 224C140 223.34 140 222.68 140 222C140.66 222 141.32 222 142 222C142 221.34 142 220.68 142 220C143.562 217.875 143.562 217.875 146 216C149.75 215.75 149.75 215.75 153 216C152.629 215.237 152.257 214.474 151.875 213.688C151.586 212.801 151.298 211.914 151 211C151.66 210.01 152.32 209.02 153 208C153.99 208 154.98 208 156 208C156.688 210.812 156.688 210.812 157 214C155.502 216.331 154.313 216.899 151.688 217.75C145.377 220.685 142.307 226.72 140 233C137.188 233.25 137.188 233.25 134 233C133.546 232.361 133.093 231.721 132.625 231.062C131.02 228.571 131.02 228.571 127.125 228.188C124.519 227.963 122.777 228.05 120.188 228.625C118 229 118 229 116.125 228C114.394 224.922 115.414 222.4 116 219C115.64 216.188 115.64 216.188 115 214C115.99 214.33 116.98 214.66 118 215C118.33 213.68 118.66 212.36 119 211C119.66 213.31 120.32 215.62 121 218C123.741 218 124.571 216.892 126.625 215.125C127.257 214.591 127.888 214.058 128.539 213.508C130.232 212.111 130.232 212.111 130 210C128.35 209.67 126.7 209.34 125 209C125 208.67 125 208.34 125 208Z" fill="#BEBEBE"/>
<path d="M78 178C78.66 179.65 79.32 181.3 80 183C81.98 182.67 83.96 182.34 86 182C83 184 83 184 81 184C81.33 184.99 81.66 185.98 82 187C87.9126 189.519 94.702 189.237 101 189C101.495 190.485 101.495 190.485 102 192C100.68 192.33 99.36 192.66 98 193C100.31 194.32 102.62 195.64 105 197C105 197.66 105 198.32 105 199C101.267 198.497 97.6507 197.913 94 197C93.01 197 92.02 197 91 197C90.4019 196.381 89.8037 195.762 89.1875 195.125C84.4019 190.476 78.7098 190.749 72.3906 190.637C71.6017 190.757 70.8128 190.876 70 191C69.01 192.485 69.01 192.485 68 194C67.01 194 66.02 194 65 194C65.3094 193.237 65.6187 192.474 65.9375 191.687C67.0226 188.943 67.9365 186.424 68.375 183.5C69.7785 177.886 72.5885 177.639 78 178Z" fill="#858585"/>
<path d="M106 222C108.762 224.762 108.579 227.207 109 231C110.093 231.309 111.186 231.619 112.312 231.938C114.554 232.583 116.787 233.262 119 234C119.144 234.887 119.289 235.774 119.438 236.688C119.623 237.781 119.809 238.874 120 240C120.062 240.866 120.124 241.733 120.188 242.625C121.4 246.17 123.849 247.19 127 249C126.125 253.875 126.125 253.875 125 255C122 255.125 122 255.125 119 255C118 254 118 254 117.875 250.125C117.725 247.947 117.725 247.947 117 246C113.638 244.023 113.638 244.023 110 243C109.34 242.34 108.68 241.68 108 241C108 239 108 237 108 235C107.34 234.34 106.68 233.68 106 233C104.68 233 103.36 233 102 233C102 232.01 102 231.02 102 230C103.32 230.33 104.64 230.66 106 231C105.34 229.02 104.68 227.04 104 225C103.216 225.33 102.432 225.66 101.625 226C99 227 99 227 97 227C98.9908 221.454 100.177 220.399 106 222Z" fill="#626262"/>
<path d="M257 192C260.403 193.012 261.757 193.648 263.813 196.625C264.204 197.409 264.596 198.193 265 199C265.33 197.02 265.66 195.04 266 193C267.32 193 268.64 193 270 193C270 198.61 270 204.22 270 210C265 209 265 209 263.188 206.438C262.796 205.633 262.404 204.829 262 204C261.34 205.98 260.68 207.96 260 210C258.35 209.67 256.7 209.34 255 209C254.946 206.541 254.906 204.084 254.875 201.625C254.858 200.926 254.842 200.228 254.824 199.508C254.807 197.671 254.897 195.834 255 194C255.66 193.34 256.32 192.68 257 192Z" fill="#929393"/>
<path d="M472 193C481.18 192.805 481.18 192.805 484 193C486 195 486 195 486.16 197.242C486.128 198.111 486.096 198.98 486.062 199.875C485.95 203.146 486.057 205.856 487 209C485.35 209.33 483.7 209.66 482 210C479 206.375 479 206.375 479 203C478.34 203 477.68 203 477 203C477 204.98 477 206.96 477 209C473.25 210.125 473.25 210.125 471 209C471.33 203.72 471.66 198.44 472 193ZM477 197C477 197.99 477 198.98 477 200C477.66 199.67 478.32 199.34 479 199C478.34 198.34 477.68 197.68 477 197Z" fill="#C3C3C3"/>
<path d="M404 193C406.312 194.063 406.312 194.063 408 196C409.753 202.289 409.753 202.289 408.183 205.855C405.931 208.985 404.266 209.952 400.5 210.625C396.343 209.883 394.66 209.305 392 206C391.347 202.881 391.363 200.121 392 197C395.627 192.164 398.252 191.62 404 193ZM399 197C396.713 198.839 396.713 198.839 396.875 201.625C396.916 202.409 396.957 203.193 397 204C398.656 204.382 400.324 204.714 402 205C403.356 203.875 403.356 203.875 403.062 200.938C403.042 199.968 403.021 198.999 403 198C401.108 197.319 401.108 197.319 399 197Z" fill="#B8B9B9"/>
<path d="M247 193C249.168 194.199 249.168 194.199 251 196C251.391 198.699 251.391 198.699 251.25 201.687C251.214 202.681 251.178 203.675 251.141 204.699C251.071 205.838 251.071 205.838 251 207C250.34 207 249.68 207 249 207C249 207.66 249 208.32 249 209C245.899 210.55 243.421 210.29 240 210C236.527 208.037 235.28 206.877 234.062 203.062C233.993 199.675 234.27 197.909 236 195C239.823 191.814 242.276 191.593 247 193ZM240 198C240 199.98 240 201.96 240 204C242.397 204.68 242.397 204.68 245 205C245.66 204.34 246.32 203.68 247 203C246.646 200.737 246.024 199.049 245 197C242.074 196.776 242.074 196.776 240 198Z" fill="#C1C1C1"/>
<path d="M356.187 191.875C357.089 191.893 357.99 191.911 358.918 191.93C359.605 191.953 360.292 191.976 361 192C361 193.65 361 195.3 361 197C358.69 197.33 356.38 197.66 354 198C354 198.66 354 199.32 354 200C356.31 200 358.62 200 361 200C361 200.99 361 201.98 361 203C358.69 203.33 356.38 203.66 354 204C356.31 204.33 358.62 204.66 361 205C360.67 206.65 360.34 208.3 360 210C358.188 210.027 356.375 210.046 354.562 210.062C353.553 210.074 352.544 210.086 351.504 210.098C349 210 349 210 348 209C347.847 206.506 347.768 204.058 347.75 201.562C347.719 200.521 347.719 200.521 347.687 199.459C347.672 197.441 347.672 197.441 348 194C351.314 191.791 352.345 191.775 356.187 191.875Z" fill="#D7D9D9"/>
<path d="M65 221C67.31 221 69.62 221 72 221C72.0825 221.784 72.165 222.567 72.25 223.375C72.7281 226.147 72.7281 226.147 75.0625 227.312C75.7019 227.539 76.3413 227.766 77 228C77 228.66 77 229.32 77 230C77.9075 230 78.815 230 79.75 230C82.1667 230 84.5833 230 87 230C91.1441 228.945 95.0495 227.621 99 226C100.996 225.322 102.995 224.653 105 224C105.495 227.465 105.495 227.465 106 231C104.68 230.67 103.36 230.34 102 230C102 230.66 102 231.32 102 232C101.01 232 100.02 232 99 232C99 231.34 99 230.68 99 230C97.3502 230.422 95.7052 230.863 94.0625 231.312C92.6877 231.678 92.6877 231.678 91.2852 232.051C90.5311 232.364 89.777 232.677 89 233C88.67 233.99 88.34 234.98 88 236C83.8156 235.477 80.6176 233.897 76.9258 231.992C74.6511 230.82 72.4442 229.768 70 229C69.01 229.33 68.02 229.66 67 230C66.34 229.67 65.68 229.34 65 229C65 226.36 65 223.72 65 221Z" fill="#828584"/>
<path d="M119.938 175C122 176 122 176 123.875 178.875C126.256 182.376 128.139 183.42 132 185C131.67 185.99 131.34 186.98 131 188C130.374 187.844 129.747 187.688 129.102 187.527C128.284 187.333 127.467 187.138 126.625 186.938C125.813 186.74 125.001 186.543 124.164 186.34C121.958 185.779 121.958 185.779 120 187C119.308 189.81 119.308 189.81 118.875 193.062C118.707 194.167 118.54 195.272 118.367 196.41C118.246 197.265 118.125 198.119 118 199C117.01 198.67 116.02 198.34 115 198C115 197.34 115 196.68 115 196C114.34 195.67 113.68 195.34 113 195C113.156 194.397 113.312 193.793 113.473 193.172C113.667 192.373 113.862 191.573 114.062 190.75C114.26 189.961 114.457 189.172 114.66 188.359C115.194 185.705 115.194 185.705 114 182C110.37 182 106.74 182 103 182C103 181.67 103 181.34 103 181C104.98 180.67 106.96 180.34 109 180C109 179.67 109 179.34 109 179C110.392 178.567 110.392 178.567 111.812 178.125C114.7 177.106 116.931 175 119.938 175ZM116 193C116 196 116 196 116 196V193Z" fill="#D9D9D9"/>
<path d="M443 192C444.895 192.074 444.895 192.074 447 193C448.449 195.582 448.449 195.582 449.688 198.812C450.104 199.871 450.52 200.929 450.949 202.02C451.77 204.347 452.47 206.594 453 209C451.35 209.33 449.7 209.66 448 210C447.34 209.01 446.68 208.02 446 207C443.941 206.276 443.941 206.276 442 206C441.67 207.32 441.34 208.64 441 210C439.35 209.67 437.7 209.34 436 209C439.863 195.137 439.863 195.137 443 192Z" fill="#C2C2C2"/>
<path d="M305 192C308.024 193.047 308.905 193.829 310.484 196.68C310.902 197.734 311.32 198.789 311.75 199.875C312.178 200.924 312.606 201.974 313.047 203.055C314 206 314 206 314 210C312.35 209.67 310.7 209.34 309 209C309 208.01 309 207.02 309 206C307.35 206 305.7 206 304 206C303.67 207.32 303.34 208.64 303 210C301.35 209.67 299.7 209.34 298 209C298.444 203.378 300.902 196.098 305 192Z" fill="#DCDDDD"/>
<path d="M521 192C522.855 192.008 522.855 192.008 525 193C526.32 195.32 527.334 197.419 528.312 199.875C528.589 200.513 528.866 201.151 529.15 201.809C531.135 206.596 531.135 206.596 530 210C528.35 209.67 526.7 209.34 525 209C525 208.01 525 207.02 525 206C523.35 206 521.7 206 520 206C519.67 207.32 519.34 208.64 519 210C517.68 210 516.36 210 515 210C515.496 204.291 516.798 196.202 521 192Z" fill="#D8D8D8"/>
<path d="M180 193C180 194.32 180 195.64 180 197C178.68 197 177.36 197 176 197C177.255 199.511 178.501 199.871 181 201C181 203.31 181 205.62 181 208C177.366 210.326 174.229 210.163 170 210C169.67 208.35 169.34 206.7 169 205C171.31 205 173.62 205 176 205C176 204.34 176 203.68 176 203C175.216 203.041 174.432 203.083 173.625 203.125C171 203 171 203 169 201C168.875 197.375 168.875 197.375 169 194C176.429 191.571 176.429 191.571 180 193Z" fill="#CACBCB"/>
<path d="M283 192C284.813 192.125 284.813 192.125 287 193C288.75 196.062 288.75 196.062 290 199C290.433 198.031 290.866 197.061 291.313 196.062C293 193 293 193 296 192C296.66 192.33 297.32 192.66 298 193C296.916 198.627 295.826 203.976 293 209C290.395 209.688 290.395 209.688 288 210C286.965 207.756 285.947 205.506 284.938 203.25C284.496 202.299 284.496 202.299 284.045 201.328C281.929 196.549 281.929 196.549 282.316 193.547C282.655 192.781 282.655 192.781 283 192Z" fill="#BDBDBD"/>
<path d="M136 195C133.068 197.391 130.279 198.841 126.75 200.188C125.858 200.532 124.966 200.876 124.047 201.23C123.034 201.611 123.034 201.611 122 202C122 201.34 122 200.68 122 200C121.01 200 120.02 200 119 200C119.021 200.949 119.041 201.898 119.062 202.875C119 206 119 206 118 208C117.01 208 116.02 208 115 208C115 208.99 115 209.98 115 211C113.68 211.33 112.36 211.66 111 212C112.32 212.66 113.64 213.32 115 214C112.812 214.313 112.812 214.313 110 214C107.188 211.5 107.188 211.5 105 209C106.32 208.67 107.64 208.34 109 208C109 208.66 109 209.32 109 210C109.66 210 110.32 210 111 210C110.34 209.01 109.68 208.02 109 207C109.125 204.438 109.125 204.438 110 202C112.062 200.688 112.062 200.688 114 200C114 199.34 114 198.68 114 198C115.32 198.33 116.64 198.66 118 199C118.33 198.34 118.66 197.68 119 197C120.32 197 121.64 197 123 197C124.392 196.227 124.392 196.227 125.812 195.438C129.693 193.688 131.909 194.1 136 195Z" fill="#DBDBDB"/>
<path d="M415.723 191.902C417.376 191.92 417.376 191.92 419.062 191.938C420.72 191.951 420.72 191.951 422.41 191.965C423.265 191.976 424.119 191.988 425 192C425 193.65 425 195.3 425 197C422.69 197 420.38 197 418 197C418 197.99 418 198.98 418 200C420.31 200 422.62 200 425 200C424.67 200.99 424.34 201.98 424 203C422.02 203 420.04 203 418 203C418 204.98 418 206.96 418 209C416.344 209.382 414.675 209.714 413 210C411.179 208.179 411.868 205.693 411.863 203.273C411.867 202.523 411.871 201.773 411.875 201C411.871 200.25 411.867 199.5 411.863 198.727C411.875 192.04 411.875 192.04 415.723 191.902Z" fill="#ACADAD"/>
<path d="M79 207C79.33 207.66 79.66 208.32 80 209C81.32 209 82.64 209 84 209C84.33 208.34 84.66 207.68 85 207C85.99 213.93 86.98 220.86 88 228C89.65 228.33 91.3 228.66 93 229C89.7345 230.884 86.7189 231.493 83 232C83 231.34 83 230.68 83 230C81.02 230 79.04 230 77 230C77.33 229.34 77.66 228.68 78 228C79.65 228.33 81.3 228.66 83 229C82.8586 226.75 82.7117 224.5 82.5625 222.25C82.4813 220.997 82.4001 219.744 82.3164 218.453C82.0748 215.817 81.7572 213.52 81 211C80.6623 211.577 80.3245 212.155 79.9766 212.75C79.5305 213.492 79.0845 214.235 78.625 215C77.9637 216.114 77.9637 216.114 77.2891 217.25C76.8637 217.828 76.4383 218.405 76 219C75.34 219 74.68 219 74 219C73.34 220.32 72.68 221.64 72 223C72 222.34 72 221.68 72 221C71.34 220.67 70.68 220.34 70 220C72.97 215.71 75.94 211.42 79 207Z" fill="#686B69"/>
<path d="M232 194C231.67 194.99 231.34 195.98 231 197C229.02 197.33 227.04 197.66 225 198C224.67 200.31 224.34 202.62 224 205C226.64 205 229.28 205 232 205C232 206.32 232 207.64 232 209C228.509 210.745 224.709 209.863 221 209C218.089 206.706 218.034 205.236 217.5 201.563C218.13 197.074 219.459 195.736 223 193C226.499 191.36 228.612 192.4 232 194Z" fill="#CACBCA"/>
<path d="M507.75 192.812C508.549 192.84 509.348 192.867 510.172 192.895C510.775 192.929 511.378 192.964 512 193C512 194.32 512 195.64 512 197C509.36 197.33 506.72 197.66 504 198C504.33 199.98 504.66 201.96 505 204C507.31 204.33 509.62 204.66 512 205C512 206.65 512 208.3 512 210C507.66 210.294 504.972 210.446 501 208.625C498.347 205.143 498.44 202.619 498.434 198.34C499 196 499 196 500.738 194.203C503.325 192.827 504.845 192.684 507.75 192.812Z" fill="#C0C0C0"/>
<path d="M365 192C366.875 192.312 366.875 192.312 369 193C369.66 193.99 370.32 194.98 371 196C373.244 196.228 373.244 196.228 375.125 194C376.053 193.01 376.053 193.01 377 192C377.99 192.33 378.98 192.66 380 193C378.875 195.972 377.777 198.334 376 201C375.549 203.049 375.549 203.049 375.375 205.188C375.251 206.446 375.127 207.704 375 209C371.25 210.125 371.25 210.125 369 209C368.473 207.109 368.473 207.109 368.062 204.75C367.31 200.924 366.054 198.326 364 195C364.33 194.01 364.66 193.02 365 192Z" fill="#BFC1C1"/>
<path d="M456 193C459.96 193 463.92 193 468 193C468 194.32 468 195.64 468 197C465.69 197.33 463.38 197.66 461 198C461 198.66 461 199.32 461 200C463.31 200 465.62 200 468 200C468 200.99 468 201.98 468 203C465.69 203 463.38 203 461 203C461 204.98 461 206.96 461 209C459.35 209.33 457.7 209.66 456 210C454.546 204.195 455.415 198.911 456 193Z" fill="#C0C0C0"/>
<path d="M173 225C173.66 225 174.32 225 175 225C175.33 226.65 175.66 228.3 176 230C176.66 230 177.32 230 178 230C178.33 228.35 178.66 226.7 179 225C182.875 226.75 182.875 226.75 184 229C184.66 227.68 185.32 226.36 186 225C186.99 225.33 187.98 225.66 189 226C188.01 229.96 187.02 233.92 186 238C183 238 183 238 181.312 236.5C180.879 236.005 180.446 235.51 180 235C179.01 236.485 179.01 236.485 178 238C177.01 238 176.02 238 175 238C174.472 236.023 173.953 234.043 173.438 232.062C173.002 230.409 173.002 230.409 172.559 228.723C172.374 227.824 172.19 226.926 172 226C172.33 225.67 172.66 225.34 173 225Z" fill="#B8B9B5"/>
<path d="M194 193C195.65 193 197.3 193 199 193C199 196.96 199 200.92 199 205C201.31 205 203.62 205 206 205C205.67 206.65 205.34 208.3 205 210C203.375 210.054 201.75 210.093 200.125 210.125C199.22 210.148 198.315 210.171 197.383 210.195C195 210 195 210 193 208C192.48 203.02 192.708 197.845 194 193Z" fill="#98999A"/>
<path d="M81 202C83.0569 202.24 85.1134 202.483 87.168 202.742C92.4339 203.222 97.7174 203.073 103 203C102.67 203.99 102.34 204.98 102 206C96.06 206.33 90.12 206.66 84 207C84 207.66 84 208.32 84 209C82.68 209 81.36 209 80 209C80 208.34 80 207.68 80 207C74.06 207 68.12 207 62 207C64.8951 204.105 68.1622 204.327 72.0625 203.938C76.9243 203.845 76.9243 203.845 81 202Z" fill="#9B9C9A"/>
<path d="M319 192C319.99 192.33 320.98 192.66 322 193C322 196.96 322 200.92 322 205C324.31 205 326.62 205 329 205C329 206.32 329 207.64 329 209C326.62 210.19 325.085 210.133 322.438 210.125C321.229 210.129 321.229 210.129 319.996 210.133C318 210 318 210 317 209C316.927 206.303 316.908 203.633 316.938 200.938C316.942 200.179 316.947 199.42 316.951 198.639C316.963 196.759 316.981 194.88 317 193C317.66 192.67 318.32 192.34 319 192Z" fill="#9E9E9F"/>
<path d="M333 193C334.65 193 336.3 193 338 193C338 196.96 338 200.92 338 205C340.31 205 342.62 205 345 205C345 206.32 345 207.64 345 209C343.376 209.195 341.751 209.381 340.125 209.562C339.22 209.667 338.315 209.771 337.383 209.879C335 210 335 210 333 209C333 203.72 333 198.44 333 193Z" fill="#C7C9CA"/>
<path d="M314 226C320.934 225.902 320.934 225.902 323 226C324.772 227.772 324 230.606 324 233C324.291 234.675 324.611 236.346 325 238C323.35 237.67 321.7 237.34 320 237C320 235.68 320 234.36 320 233C319.34 233 318.68 233 318 233C317.67 234.65 317.34 236.3 317 238C316.01 238 315.02 238 314 238C314 234.04 314 230.08 314 226ZM318 228C317.67 228.99 317.34 229.98 317 231C317.99 231 318.98 231 320 231C320 230.01 320 229.02 320 228C319.34 228 318.68 228 318 228Z" fill="#9C9E9B"/>
<path d="M455 225.75C458 227 458 227 460 230C459.556 235.444 459.556 235.444 457 238C455.125 238.301 455.125 238.301 453 238.312C452.299 238.329 451.597 238.346 450.875 238.363C450.256 238.243 449.637 238.124 449 238C446.687 234.531 446.575 233.078 447 229C449.412 225.821 451.041 224.76 455 225.75ZM452 228C451.34 228.66 450.68 229.32 450 230C450.32 232.603 450.32 232.603 451 235C452.65 234.67 454.3 234.34 456 234C455.67 232.35 455.34 230.7 455 229C454.01 228.67 453.02 228.34 452 228Z" fill="#929392"/>
<path d="M96.25 188.937C97.142 188.947 98.0341 188.956 98.9531 188.965C99.6286 188.976 100.304 188.988 101 189C101.33 189.99 101.66 190.98 102 192C100.68 192.33 99.36 192.66 98 193C101.465 194.98 101.465 194.98 105 197C105 197.66 105 198.32 105 199C101.267 198.497 97.6506 197.913 94 197C93.01 197 92.02 197 91 197C88.8125 195.187 88.8125 195.187 87 193C87 192.01 87 191.02 87 190C90.1551 189.064 92.9659 188.894 96.25 188.937Z" fill="#A5A6A2"/>
<path d="M130 186C131.792 186.309 133.584 186.622 135.375 186.938C136.872 187.199 136.872 187.199 138.398 187.465C141 188 141 188 143 189C143.414 191.066 143.414 191.066 143.625 193.562C143.7 194.389 143.775 195.215 143.852 196.066C143.901 196.704 143.95 197.343 144 198C141.36 197.67 138.72 197.34 136 197C136 196.34 136 195.68 136 195C135.01 195 134.02 195 133 195C133 193.02 133 191.04 133 189C132.34 189 131.68 189 131 189C130.67 188.01 130.34 187.02 130 186Z" fill="#DFDFDF"/>
<path d="M489.066 225.902C490.302 225.92 490.302 225.92 491.562 225.938C492.389 225.947 493.215 225.956 494.066 225.965C494.704 225.976 495.343 225.988 496 226C496 226.66 496 227.32 496 228C494.02 228 492.04 228 490 228C490 228.66 490 229.32 490 230C491.65 230 493.3 230 495 230C495.33 230.99 495.66 231.98 496 233C492.25 234.125 492.25 234.125 490 233C490 233.66 490 234.32 490 235C491.65 235 493.3 235 495 235C495.33 235.99 495.66 236.98 496 238C492.7 238 489.4 238 486 238C485.973 236.188 485.954 234.375 485.938 232.562C485.926 231.553 485.914 230.544 485.902 229.504C486.037 226.045 486.037 226.045 489.066 225.902Z" fill="#7F807F"/>
<path d="M250 226C253.3 226 256.6 226 260 226C260 226.66 260 227.32 260 228C258.02 228 256.04 228 254 228C254 228.66 254 229.32 254 230C255.65 230 257.3 230 259 230C259.33 230.99 259.66 231.98 260 233C258.02 233 256.04 233 254 233C254 233.66 254 234.32 254 235C255.98 235 257.96 235 260 235C260 235.99 260 236.98 260 238C256.7 238 253.4 238 250 238C250 234.04 250 230.08 250 226Z" fill="#878887"/>
<path d="M211 192C212.32 192.66 213.64 193.32 215 194C215 198.95 215 203.9 215 209C213.35 209.33 211.7 209.66 210 210C208.019 208.019 208.815 204.266 208.813 201.562C208.8 200.868 208.788 200.174 208.775 199.459C208.77 197.638 208.878 195.817 209 194C209.66 193.34 210.32 192.68 211 192Z" fill="#CACCCA"/>
<path d="M503 226C509.836 225.805 509.836 225.805 512 226C514 228 514 228 514.25 231.438C514 235 514 235 512 238C508.961 238.411 506.078 238.132 503 238C503 234.04 503 230.08 503 226ZM506 228C506 230.31 506 232.62 506 235C507.65 234.67 509.3 234.34 511 234C510.67 232.35 510.34 230.7 510 229C508.68 228.67 507.36 228.34 506 228Z" fill="#B0B0AF"/>
<path d="M467 226C474.357 225.638 474.357 225.638 477 227.125C478.462 229.867 478.318 231.944 478 235C477.01 236.485 477.01 236.485 476 238C472.961 238.411 470.078 238.132 467 238C467 234.04 467 230.08 467 226ZM470 228C470 230.31 470 232.62 470 235C471.65 234.67 473.3 234.34 475 234C474.67 232.35 474.34 230.7 474 229C472.68 228.67 471.36 228.34 470 228Z" fill="#7B7D7B"/>
<path d="M104 224C106 226 106 226 106.125 228.625C106.084 229.409 106.042 230.193 106 231C104.68 230.67 103.36 230.34 102 230C102 230.66 102 231.32 102 232C101.01 232 100.02 232 99 232C99 231.34 99 230.68 99 230C97.3502 230.422 95.7052 230.863 94.0625 231.312C93.146 231.556 92.2295 231.8 91.2852 232.051C90.5311 232.364 89.777 232.677 89 233C88.67 233.99 88.34 234.98 88 236C86.68 236 85.36 236 84 236C84 234.35 84 232.7 84 231C84.7219 230.876 85.4438 230.753 86.1875 230.625C88.9767 230.005 91.3745 229.116 94 228C97.3333 226.667 100.667 225.333 104 224Z" fill="#6F6F6F"/>
<path d="M138 184C140.696 184.284 142.503 184.618 144.672 186.285C146.378 188.489 146.174 189.46 145.875 192.188C145.662 197.009 147.169 199.568 150.004 203.371C150.333 203.909 150.661 204.446 151 205C150.67 205.66 150.34 206.32 150 207C148.25 206.938 148.25 206.938 146 206C144.974 204.237 143.952 202.469 143.016 200.656C141.713 198.532 140.351 197.756 138 197C139.65 197 141.3 197 143 197C143 194.36 143 191.72 143 189C139.7 188.34 136.4 187.68 133 187C134.32 186.34 135.64 185.68 137 185C137.33 184.67 137.66 184.34 138 184Z" fill="#C1C1C1"/>
<path d="M232 226C234.97 226 237.94 226 241 226C243.108 230.216 243.177 232.398 243 237C241.68 237.33 240.36 237.66 239 238C238.897 237.361 238.794 236.721 238.688 236.062C238.461 235.382 238.234 234.701 238 234C237.01 233.67 236.02 233.34 235 233C235 234.65 235 236.3 235 238C234.01 238 233.02 238 232 238C232 234.04 232 230.08 232 226ZM235 228C235 228.99 235 229.98 235 231C236.32 231 237.64 231 239 231C239 230.01 239 229.02 239 228C237.68 228 236.36 228 235 228Z" fill="#A8A9A7"/>
<path d="M116 193C116 196 116 196 116 196V193ZM108 194C108.99 194 109.98 194 111 194C111 194.66 111 195.32 111 196C112.32 196 113.64 196 115 196C114.602 198.886 114.21 199.822 111.938 201.75C110.978 202.369 110.978 202.369 110 203C110.33 205.31 110.66 207.62 111 210C108.03 209.505 108.03 209.505 105 209C103.875 202.375 103.875 202.375 105 199C105.99 199 106.98 199 108 199C108 197.35 108 195.7 108 194Z" fill="#E0E0E0"/>
<path d="M364 225C364.99 225 365.98 225 367 225C367.838 226.79 368.67 228.582 369.5 230.375C369.964 231.373 370.428 232.37 370.906 233.398C372 236 372 236 372 238C370.68 238 369.36 238 368 238C368 237.34 368 236.68 368 236C366.855 236.495 366.855 236.495 365.688 237C363 238 363 238 360 238C360.591 233.153 361.979 229.393 364 225Z" fill="#61615F"/>
<path d="M266 193C267.32 193 268.64 193 270 193C270 198.61 270 204.22 270 210C265 209 265 209 263.188 206.625C262 204 262 204 262 201C262.99 201 263.98 201 265 201C265.33 198.36 265.66 195.72 266 193Z" fill="#D8D9DA"/>
<path d="M282 225C283.891 225.297 283.891 225.297 286 226C288.193 230.073 289.422 233.36 289 238C288.01 238 287.02 238 286 238C286 237.34 286 236.68 286 236C284.855 236.495 284.855 236.495 283.688 237C281 238 281 238 278 238C278.703 235.023 279.582 232.147 280.562 229.25C280.832 228.451 281.101 227.652 281.379 226.828C281.584 226.225 281.789 225.622 282 225Z" fill="#8F9190"/>
<path d="M196 225C196.99 225 197.98 225 199 225C199 226.98 199 228.96 199 231C200.65 231 202.3 231 204 231C204 229.02 204 227.04 204 225C204.99 225.33 205.98 225.66 207 226C207 229.96 207 233.92 207 238C206.01 238 205.02 238 204 238C204 236.35 204 234.7 204 233C202.35 233 200.7 233 199 233C199 234.65 199 236.3 199 238C198.01 238 197.02 238 196 238C196 233.71 196 229.42 196 225Z" fill="#9B9D9D"/>
<path d="M215 226C217.97 226 220.94 226 224 226C224 226.66 224 227.32 224 228C222.02 228 220.04 228 218 228C218 228.66 218 229.32 218 230C219.98 230 221.96 230 224 230C224 230.99 224 231.98 224 233C222.02 233 220.04 233 218 233C218 233.66 218 234.32 218 235C219.98 235 221.96 235 224 235C224 235.99 224 236.98 224 238C221.03 238 218.06 238 215 238C213.578 233.735 214.42 230.446 215 226Z" fill="#A3A4A2"/>
<path d="M490 193C491.65 193 493.3 193 495 193C495 198.61 495 204.22 495 210C493.35 209.67 491.7 209.34 490 209C490 203.72 490 198.44 490 193Z" fill="#CCCBCB"/>
<path d="M185 193C186.65 193 188.3 193 190 193C190 198.28 190 203.56 190 209C188.68 209.33 187.36 209.66 186 210C185 209 185 209 184.902 205.402C184.909 203.914 184.921 202.426 184.938 200.938C184.942 200.179 184.947 199.42 184.951 198.639C184.963 196.759 184.981 194.88 185 193Z" fill="#9B9B9E"/>
<path d="M442 195C444 197 444 197 444.125 200.125C444.084 201.074 444.042 202.023 444 203C445.32 203 446.64 203 448 203C448 204.32 448 205.64 448 207C445.03 206.505 445.03 206.505 442 206C441.67 207.32 441.34 208.64 441 210C439.35 209.67 437.7 209.34 436 209C436.449 207.352 436.909 205.706 437.375 204.062C437.63 203.146 437.885 202.229 438.148 201.285C439 199 439 199 441 198C441.33 197.01 441.66 196.02 442 195Z" fill="#F0F0F0"/>
<path d="M153 208C153.99 208 154.98 208 156 208C156.688 210.812 156.688 210.812 157 214C155.502 216.331 154.313 216.899 151.688 217.75C146.539 220.145 143.349 224.946 141 230C140.67 227.36 140.34 224.72 140 222C140.66 222 141.32 222 142 222C142 221.34 142 220.68 142 220C143.562 217.875 143.562 217.875 146 216C149.75 215.75 149.75 215.75 153 216C152.443 214.855 152.443 214.855 151.875 213.688C151.586 212.801 151.297 211.914 151 211C151.66 210.01 152.32 209.02 153 208Z" fill="#929292"/>
<path d="M410 226C410 226.66 410 227.32 410 228C408.68 228 407.36 228 406 228C407.255 230.511 408.501 230.871 411 232C410.125 236.875 410.125 236.875 409 238C406.329 238.141 403.676 238.042 401 238C401.33 237.01 401.66 236.02 402 235C403.65 235 405.3 235 407 235C407 234.34 407 233.68 407 233C405.35 232.67 403.7 232.34 402 232C401.67 230.68 401.34 229.36 401 228C404.435 225.71 405.985 225.822 410 226Z" fill="#989997"/>
<path d="M106 222C108.762 224.762 108.579 227.207 109 231C111.97 231.495 111.97 231.495 115 232C115 232.66 115 233.32 115 234C111.894 234.998 110.1 234.939 107 234C105.335 233.659 103.668 233.324 102 233C102 232.01 102 231.02 102 230C103.32 230.33 104.64 230.66 106 231C105.34 229.02 104.68 227.04 104 225C103.216 225.33 102.432 225.66 101.625 226C99 227 99 227 97 227C98.9908 221.454 100.177 220.399 106 222Z" fill="#525252"/>
<path d="M297 226C300.3 226 303.6 226 307 226C307 226.66 307 227.32 307 228C305.02 228 303.04 228 301 228C301 228.66 301 229.32 301 230C302.65 230.33 304.3 230.66 306 231C306 231.66 306 232.32 306 233C304.35 233 302.7 233 301 233C301 234.65 301 236.3 301 238C299.68 238 298.36 238 297 238C297 234.04 297 230.08 297 226Z" fill="#71716F"/>
<path d="M353 226C353 226.66 353 227.32 353 228C351.35 228 349.7 228 348 228C348 229.98 348 231.96 348 234C349.65 234.33 351.3 234.66 353 235C353 235.99 353 236.98 353 238C351.721 238.062 350.442 238.124 349.125 238.187C348.406 238.222 347.686 238.257 346.945 238.293C346.303 238.196 345.661 238.1 345 238C342.687 234.531 342.575 233.078 343 229C345.289 224.96 348.78 225.761 353 226Z" fill="#AAACAB"/>
<path d="M503 199C503.33 199 503.66 199 504 199C504.33 200.65 504.66 202.3 505 204C507.31 204.33 509.62 204.66 512 205C512 206.65 512 208.3 512 210C504.738 210.492 504.738 210.492 501 208C500.34 207.34 499.68 206.68 499 206C499.33 205.01 499.66 204.02 500 203C500.66 203.33 501.32 203.66 502 204C502.33 202.35 502.66 200.7 503 199Z" fill="#9E9E9E"/>
<path d="M439 226C439 226.66 439 227.32 439 228C437.68 228.33 436.36 228.66 435 229C434.67 230.98 434.34 232.96 434 235C435.65 235 437.3 235 439 235C439.33 235.99 439.66 236.98 440 238C433.655 238.359 433.655 238.359 431.062 236.937C429.391 233.889 429.63 231.395 430 228C433.435 225.71 434.985 225.822 439 226Z" fill="#C4C5C3"/>
<path d="M414 199C414.66 199.66 415.32 200.32 416 201C416.33 200.67 416.66 200.34 417 200C419.671 199.859 422.324 199.958 425 200C424.67 200.99 424.34 201.98 424 203C422.02 203 420.04 203 418 203C418 204.98 418 206.96 418 209C416.35 209.33 414.7 209.66 413 210C412.973 208.354 412.954 206.708 412.938 205.062C412.926 204.146 412.914 203.229 412.902 202.285C413 200 413 200 414 199Z" fill="#C8CAC8"/>
<path d="M296 196C296.37 201.056 295.514 204.58 293 209C290.312 209.938 290.312 209.938 288 210C287.67 208.35 287.34 206.7 287 205C287.66 205 288.32 205 289 205C289 204.01 289 203.02 289 202C289.66 202 290.32 202 291 202C291.433 200.793 291.433 200.793 291.875 199.562C293.439 196 293.439 196 296 196Z" fill="#C7C8C7"/>
<path d="M125 208C126.98 208 128.96 208 131 208C131.103 208.639 131.206 209.279 131.312 209.938C131.653 210.958 131.653 210.958 132 212C132.99 212.33 133.98 212.66 135 213C134.01 213.33 133.02 213.66 132 214C132 214.66 132 215.32 132 216C131.34 216 130.68 216 130 216C129.67 216.99 129.34 217.98 129 219C128.34 219 127.68 219 127 219C126.34 220.32 125.68 221.64 125 223C124.34 222.34 123.68 221.68 123 221C122.01 221 121.02 221 120 221C120.33 220.01 120.66 219.02 121 218C121.66 218 122.32 218 123 218C124.797 216.745 124.797 216.745 126.625 215.125C127.257 214.591 127.888 214.058 128.539 213.508C130.232 212.111 130.232 212.111 130 210C128.35 209.67 126.7 209.34 125 209C125 208.67 125 208.34 125 208Z" fill="#9B9C9D"/>
<path d="M218 198C218.33 198 218.66 198 219 198C219.66 200.64 220.32 203.28 221 206C221.99 204.68 222.98 203.36 224 202C224 202.99 224 203.98 224 205C226.64 205 229.28 205 232 205C232 206.32 232 207.64 232 209C228.509 210.745 224.709 209.863 221 209C218.938 207.375 218.938 207.375 218 205C217.812 201.25 217.812 201.25 218 198Z" fill="#8C8D8D"/>
<path d="M94 175C94.66 175.33 95.32 175.66 96 176C96.1238 176.969 96.2475 177.939 96.375 178.938C96.5812 179.948 96.7875 180.959 97 182C98.3165 182.699 99.6502 183.367 101 184C101.75 186.625 101.75 186.625 102 189C101.608 188.381 101.216 187.762 100.812 187.125C98.7228 184.675 97.0254 183.981 94 183C94 182.34 94 181.68 94 181C93.01 181.495 93.01 181.495 92 182C89.9625 182.229 87.9196 182.41 85.875 182.562C84.7793 182.646 83.6836 182.73 82.5547 182.816C81.7116 182.877 80.8686 182.938 80 183C80 182.34 80 181.68 80 181C82.9948 180.128 85.6358 179.892 88.75 179.938C89.5492 179.947 90.3484 179.956 91.1719 179.965C91.7752 179.976 92.3784 179.988 93 180C93.33 178.35 93.66 176.7 94 175Z" fill="#B7B7B7"/>
<path d="M119 200C119.99 200 120.98 200 122 200C122 201.98 122 203.96 122 206C121.01 206.495 121.01 206.495 120 207C119.315 208.888 119.315 208.888 118.875 211.062C118.624 212.163 118.624 212.163 118.367 213.285C118.246 213.851 118.125 214.417 118 215C115.648 214.401 113.314 213.731 111 213C110.67 212.34 110.34 211.68 110 211C111.65 211 113.3 211 115 211C115 210.01 115 209.02 115 208C115.99 208 116.98 208 118 208C117.979 207.051 117.959 206.102 117.938 205.125C118 202 118 202 119 200Z" fill="#E8E9E9"/>
<path d="M141 227C141.043 228.666 141.041 230.334 141 232C140 233 140 233 137.125 233.313C134 233 134 233 132.125 231.125C131 229 131 229 131 227C134.576 225.762 137.337 226.251 141 227Z" fill="#D8D8D8"/>
<path d="M198 203C198 203.99 198 204.98 198 206C200.31 206 202.62 206 205 206C205 207.32 205 208.64 205 210C203.354 210.027 201.708 210.046 200.063 210.062C199.146 210.074 198.229 210.086 197.285 210.098C195 210 195 210 194 209C193.959 207.334 193.957 205.666 194 204C196 203 196 203 198 203Z" fill="#CBCBCD"/>
<path d="M402 194C403.98 194.66 405.96 195.32 408 196C409.125 203.75 409.125 203.75 408 206C406.68 205.67 405.36 205.34 404 205C403.34 201.37 402.68 197.74 402 194Z" fill="#E8E8E8"/>
<path d="M61 209C61.33 209.99 61.66 210.98 62 212C62.8299 213.576 63.6863 215.137 64.5625 216.688C65.2451 217.9 65.2451 217.9 65.9414 219.137C66.2907 219.752 66.6401 220.366 67 221C66.34 221 65.68 221 65 221C65 223.31 65 225.62 65 228C64.67 228 64.34 228 64 228C63.9175 226.969 63.835 225.938 63.75 224.875C62.9377 220.678 61.4708 218.427 59 215C59 214.34 59 213.68 59 213C57.35 213 55.7 213 54 213C56.3857 211.108 58.0718 209.976 61 209Z" fill="#6C6F6E"/>
<path d="M390 225C391.32 225.33 392.64 225.66 394 226C394 229.63 394 233.26 394 237C392.68 237.33 391.36 237.66 390 238C390 233.71 390 229.42 390 225Z" fill="#767774"/>
<path d="M365 192C368.1 192.332 369.055 193.055 371.312 195.312C373 198 373 198 372.75 200.312C372.502 200.869 372.255 201.426 372 202C370.68 202 369.36 202 368 202C364.777 196.824 364.777 196.824 364 195C364.33 194.01 364.66 193.02 365 192Z" fill="#C3C4C4"/>
<path d="M333 225C333.99 225.33 334.98 225.66 336 226C336 229.96 336 233.92 336 238C334.68 238 333.36 238 332 238C331.973 236.021 331.954 234.042 331.938 232.062C331.926 230.96 331.914 229.858 331.902 228.723C332 226 332 226 333 225Z" fill="#989A98"/>
<path d="M115 185C116.65 185.33 118.3 185.66 120 186C119.34 190.29 118.68 194.58 118 199C117.01 198.67 116.02 198.34 115 198C115 197.34 115 196.68 115 196C114.34 195.67 113.68 195.34 113 195C113.66 191.7 114.32 188.4 115 185ZM116 193C116 196 116 196 116 196V193Z" fill="#A3A3A3"/>
<path d="M103 184C105.375 184.5 105.375 184.5 108 186C109.082 188.665 109.493 191.141 110 194C109.34 194 108.68 194 108 194C108 195.65 108 197.3 108 199C106 195.25 106 195.25 106 193C105.01 192.67 104.02 192.34 103 192C103 189.333 103 186.667 103 184Z" fill="#B2B2B2"/>
<path d="M249 194C250 195 250 195 250.098 196.848C250.049 199.924 250.049 199.924 250 203C249.01 203 248.02 203 247 203C246.546 202.031 246.093 201.061 245.625 200.063C244.342 196.929 244.342 196.929 242 196C242 195.34 242 194.68 242 194C244.684 192.658 246.153 193.27 249 194Z" fill="#D9DADA"/>
<path d="M136 195C133.068 197.391 130.279 198.841 126.75 200.187C125.412 200.704 125.412 200.704 124.047 201.23C123.371 201.484 122.696 201.738 122 202C122 201.34 122 200.68 122 200C121.34 199.67 120.68 199.34 120 199C125.698 195.266 129.26 193.136 136 195Z" fill="#ADADAE"/>
<path d="M96 175C98.475 175.99 98.475 175.99 101 177C100.01 177.495 100.01 177.495 99 178C99.6919 180.959 99.6919 180.959 101.438 182.188C103.922 185.07 104.214 188.31 105 192C104.01 192.33 103.02 192.66 102 193C101.438 190.831 100.979 188.798 100.75 186.562C100.147 183.724 100.147 183.724 97.375 181.438C96.5912 180.633 95.8075 179.829 95 179C95.1875 176.688 95.1875 176.688 96 175Z" fill="#F2F4F3"/>
<path d="M468 226C474.378 225.639 474.378 225.639 476.938 227.125C478.445 229.785 478.2 232.002 478 235C477.34 235 476.68 235 476 235C476 233.02 476 231.04 476 229C473.69 228.67 471.38 228.34 469 228C469 230.64 469 233.28 469 236C470.98 236.495 470.98 236.495 473 237C471.35 237 469.7 237 468 237C468 233.37 468 229.74 468 226Z" fill="#BABBBA"/>
<path d="M97.5 209.875C100 210 100 210 101 211C101.125 213.5 101.125 213.5 101 216C100 217 100 217 97.5 217.125C95 217 95 217 94 216C93.875 213.5 93.875 213.5 94 211C95 210 95 210 97.5 209.875Z" fill="#757575"/>
<path d="M250 196C250.33 196 250.66 196 251 196C251 199.63 251 203.26 251 207C250.34 207 249.68 207 249 207C249 207.66 249 208.32 249 209C246.043 210.478 243.258 210.06 240 210C240 209.67 240 209.34 240 209C241.98 209 243.96 209 246 209C246 208.01 246 207.02 246 206C244.68 205.67 243.36 205.34 242 205C245.088 203.235 246.233 203 250 203C250 200.69 250 198.38 250 196Z" fill="#ACACAC"/>
<path d="M256 194C256.66 194 257.32 194 258 194C258.33 194.66 258.66 195.32 259 196C261.017 197.134 261.017 197.134 263 198C262.67 198.66 262.34 199.32 262 200C261.34 200 260.68 200 260 200C259.67 200.99 259.34 201.98 259 203C258.34 203 257.68 203 257 203C257.33 204.32 257.66 205.64 258 207C257.01 207.495 257.01 207.495 256 208C256 203.38 256 198.76 256 194Z" fill="#F8FAF9"/>
<path d="M86 218C86.33 218 86.66 218 87 218C87.33 221.3 87.66 224.6 88 228C89.65 228.33 91.3 228.66 93 229C89.7345 230.884 86.7189 231.493 83 232C83 231.34 83 230.68 83 230C81.02 230 79.04 230 77 230C77.33 229.34 77.66 228.68 78 228C79.65 228.33 81.3 228.66 83 229C83 226.03 83 223.06 83 220C83.33 220 83.66 220 84 220C84 222.97 84 225.94 84 229C84.66 229 85.32 229 86 229C86 225.37 86 221.74 86 218Z" fill="#3D3D3D"/>
<path d="M96.75 202.938C98.5057 202.951 98.5057 202.951 100.297 202.965C101.189 202.976 102.081 202.988 103 203C102.67 203.99 102.34 204.98 102 206C99.8961 206.054 97.7918 206.093 95.6875 206.125C93.9299 206.16 93.9299 206.16 92.1367 206.195C89 206 89 206 86 204C89.6099 202.865 92.9842 202.9 96.75 202.938Z" fill="#767777"/>
<path d="M144 194C144.66 194.99 145.32 195.98 146 197C146.655 197.976 146.655 197.976 147.324 198.973C147.774 199.662 148.224 200.352 148.688 201.062C149.145 201.755 149.603 202.447 150.074 203.16C150.38 203.767 150.685 204.374 151 205C150.67 205.66 150.34 206.32 150 207C148.25 206.938 148.25 206.938 146 206C144.974 204.237 143.952 202.469 143.016 200.656C141.713 198.532 140.351 197.756 138 197C139.65 197 141.3 197 143 197C143.33 196.01 143.66 195.02 144 194Z" fill="#AAAAAA"/>
<path d="M180 193C180 194.32 180 195.64 180 197C178.68 197 177.36 197 176 197C176.33 197.99 176.66 198.98 177 200C175.68 200 174.36 200 173 200C173 198.02 173 196.04 173 194C172.34 193.67 171.68 193.34 171 193C174.378 192.155 176.675 191.892 180 193Z" fill="#A4A6A6"/>
<path d="M169 205C174.373 204.648 174.373 204.648 177 205C179 207 179 207 180 209C178.742 209.186 177.484 209.371 176.188 209.562C175.126 209.719 175.126 209.719 174.043 209.879C172 210 172 210 169 209C169 207.68 169 206.36 169 205Z" fill="#BFC0C0"/>
<path d="M399 195C398.01 196.485 398.01 196.485 397 198C396.814 199.516 396.814 199.516 396.625 201.063C396.419 202.032 396.212 203.001 396 204C393.961 205.184 393.961 205.184 392 206C391.712 202.949 391.553 200.04 392 197C395.943 193.472 395.943 193.472 399 195Z" fill="#E3E5E4"/>
<path d="M404 193C404.66 193.66 405.32 194.32 406 195C405.01 195 404.02 195 403 195C403 195.99 403 196.98 403 198C401.824 198.124 401.824 198.124 400.625 198.25C397.853 198.728 397.853 198.728 396.688 201.062C396.461 201.702 396.234 202.341 396 203C395.918 199.956 396.024 197.928 397 195C395.68 195.33 394.36 195.66 393 196C396.791 192.036 398.57 191.756 404 193Z" fill="#9E9E9E"/>
<path d="M148 205C149.65 205.99 151.3 206.98 153 208C152.814 208.763 152.629 209.526 152.438 210.312C151.772 213.09 151.772 213.09 153 216C151.35 216.33 149.7 216.66 148 217C147.67 215.02 147.34 213.04 147 211C147.66 211 148.32 211 149 211C148.67 209.02 148.34 207.04 148 205Z" fill="#F1F1F1"/>
<path d="M473 194C476.63 194 480.26 194 484 194C484.33 195.32 484.66 196.64 485 198C480.545 197.01 480.545 197.01 476 196C475.67 197.32 475.34 198.64 475 200C474.34 200 473.68 200 473 200C473 198.02 473 196.04 473 194Z" fill="#F9F9F9"/>
<path d="M80 184C80.5775 184.619 81.155 185.237 81.75 185.875C83.8025 187.813 85.4337 188.9 88 190C87.67 190.66 87.34 191.32 87 192C86.3361 191.928 85.6723 191.856 84.9883 191.781C84.1053 191.688 83.2223 191.596 82.3125 191.5C81.4424 191.407 80.5723 191.314 79.6758 191.219C77.1028 191.008 74.5802 190.963 72 191C73.32 189.68 74.64 188.36 76 187C76.99 187.33 77.98 187.66 79 188C79.33 186.68 79.66 185.36 80 184Z" fill="#6F706E"/>
<path d="M484 194C484.66 194.33 485.32 194.66 486 195C485.67 197.97 485.34 200.94 485 204C484.237 203.34 483.474 202.68 482.688 202C480.157 199.701 480.157 199.701 477 200C476.67 198.68 476.34 197.36 476 196C479.625 195.799 481.865 196.142 485 198C484.67 196.68 484.34 195.36 484 194Z" fill="#949496"/>
<path d="M83 212C83.66 212 84.32 212 85 212C85.9041 215.837 86.1058 219.375 86.0625 223.312C86.0535 224.381 86.0445 225.45 86.0352 226.551C86.0236 227.359 86.012 228.167 86 229C85.34 229 84.68 229 84 229C83.67 223.39 83.34 217.78 83 212Z" fill="#7A7A7B"/>
<path d="M353 204C355.64 204.33 358.28 204.66 361 205C360.67 206.65 360.34 208.3 360 210C358.02 210 356.04 210 354 210C353.447 207.924 353 206.156 353 204Z" fill="#BFC1C4"/>
<path d="M361 193C361 193.99 361 194.98 361 196C357.7 196 354.4 196 351 196C351 197.98 351 199.96 351 202C350.34 202 349.68 202 349 202C348.875 199.125 348.875 199.125 349 196C352.354 192.646 356.424 193 361 193Z" fill="#F3F5F4"/>
<path d="M321 227C321.99 227 322.98 227 324 227C323.979 227.887 323.959 228.774 323.938 229.688C323.993 232.622 324.331 235.155 325 238C323.68 238 322.36 238 321 238C321 234.37 321 230.74 321 227Z" fill="#B3B5B1"/>
<path d="M455 229C455.66 229 456.32 229 457 229C457.33 229.99 457.66 230.98 458 232C458.66 231.34 459.32 230.68 460 230C459.25 235.75 459.25 235.75 457 238C454.312 238.27 451.709 238.087 449 238C451.052 235.752 452.007 234.998 455 234C455 232.35 455 230.7 455 229Z" fill="#717271"/>
<path d="M153 208C153.99 208 154.98 208 156 208C156.33 209.98 156.66 211.96 157 214C155.02 214.99 155.02 214.99 153 216C151.875 213.688 151.875 213.688 151 211C151.66 210.01 152.32 209.02 153 208Z" fill="#BDBDBD"/>
<path d="M347 228C348 230 348 230 348 234C349.65 234.33 351.3 234.66 353 235C353 235.99 353 236.98 353 238C350.36 238 347.72 238 345 238C344.67 237.34 344.34 236.68 344 236C344.66 236 345.32 236 346 236C345.979 234.866 345.959 233.731 345.938 232.562C346 229 346 229 347 228Z" fill="#696C6A"/>
<path d="M477 203C477 204.98 477 206.96 477 209C473.25 210.125 473.25 210.125 471 209C471 207.35 471 205.7 471 204C473.175 202.913 474.584 203 477 203Z" fill="#B3B3B3"/>
<path d="M103.312 196.062C104.148 196.527 104.148 196.527 105 197C105 197.66 105 198.32 105 199C101.267 198.497 97.6506 197.913 94 197C93.01 197 92.02 197 91 197C94.9589 193.041 98.5743 193.885 103.312 196.062Z" fill="#72726F"/>
<path d="M512 227C512.66 227.33 513.32 227.66 514 228C514.25 234.625 514.25 234.625 512 238C509.836 238.293 509.836 238.293 507.375 238.188C506.558 238.16 505.74 238.133 504.898 238.105C504.272 238.071 503.645 238.036 503 238C505.984 234.576 508.525 234.422 513 234C512.67 231.69 512.34 229.38 512 227Z" fill="#6C6C6C"/>
<path d="M298 227C298.66 227 299.32 227 300 227C300 228.32 300 229.64 300 231C301.98 231 303.96 231 306 231C306 231.66 306 232.32 306 233C304.02 233 302.04 233 300 233C300 234.32 300 235.64 300 237C299.34 237 298.68 237 298 237C298 233.7 298 230.4 298 227Z" fill="#CBCBC8"/>
<path d="M377 192C377.99 192.33 378.98 192.66 380 193C378.926 195.915 378.222 197.778 376 200C376 199.34 376 198.68 376 198C374.68 197.67 373.36 197.34 372 197C373.65 195.35 375.3 193.7 377 192Z" fill="#AAABAA"/>
<path d="M356.187 191.875C357.088 191.893 357.99 191.911 358.918 191.93C359.605 191.953 360.292 191.976 361 192C357.439 193.875 353.888 194.953 350 196C349.67 200.29 349.34 204.58 349 209C348.67 209 348.34 209 348 209C347.919 206.541 347.86 204.085 347.812 201.625C347.787 200.926 347.762 200.228 347.736 199.508C347.707 197.477 347.707 197.477 348 194C351.314 191.791 352.345 191.775 356.187 191.875Z" fill="#7E807F"/>
<path d="M433 228C433.66 228.33 434.32 228.66 435 229C434.67 230.98 434.34 232.96 434 235C435.65 235 437.3 235 439 235C439.33 235.99 439.66 236.98 440 238C436.625 238.188 436.625 238.188 433 238C432.34 237.01 431.68 236.02 431 235C431.66 235 432.32 235 433 235C433 232.69 433 230.38 433 228Z" fill="#7A7C7A"/>
<path d="M439 199C439.66 200.32 440.32 201.64 441 203C440.01 204.485 440.01 204.485 439 206C439.99 206.33 440.98 206.66 442 207C441.67 207.99 441.34 208.98 441 210C439.35 209.67 437.7 209.34 436 209C436.99 205.7 437.98 202.4 439 199Z" fill="#A7A7A8"/>
<path d="M85 230C87.3395 230.287 89.6739 230.619 92 231C91.67 231.66 91.34 232.32 91 233C90.34 233 89.68 233 89 233C88.67 233.99 88.34 234.98 88 236C86.68 236 85.36 236 84 236C83.9573 234.334 83.9594 232.666 84 231C84.33 230.67 84.66 230.34 85 230Z" fill="#6A6A6A"/>
<path d="M238 204C239.812 204.375 239.812 204.375 242 205C242.742 205.186 243.485 205.371 244.25 205.562C244.827 205.707 245.405 205.851 246 206C246 206.99 246 207.98 246 209C243.69 209 241.38 209 239 209C238.34 207.68 237.68 206.36 237 205C237.33 204.67 237.66 204.34 238 204Z" fill="#EDEEEE"/>
<path d="M527 199C529.19 202.285 529.998 205.207 531 209C527.25 210.125 527.25 210.125 525 209C525.506 206.831 526 205 527 203C527 201.68 527 200.36 527 199Z" fill="#A9A9A9"/>
<path d="M309 195C314 204.615 314 204.615 314 210C312.68 209.67 311.36 209.34 310 209C310.99 209 311.98 209 313 209C312.67 207.68 312.34 206.36 312 205C311.34 205 310.68 205 310 205C308.393 201.785 308.942 198.564 309 195Z" fill="#ABABAB"/>
<path d="M138.062 223.938C139.517 223.968 139.517 223.968 141 224C141 224.99 141 225.98 141 227C136.05 227.33 131.1 227.66 126 228C129 225 129 225 131.625 224.875C132.409 224.916 133.193 224.957 134 225C135 224 135 224 138.062 223.938Z" fill="#ABABAB"/>
<path d="M104 221C104.33 221.99 104.66 222.98 105 224C101.939 226.624 101.268 227 97 227C99.1538 221 99.1538 221 104 221Z" fill="#616162"/>
<path d="M479 203C481.31 203.66 483.62 204.32 486 205C486.33 206.32 486.66 207.64 487 209C485.35 209.33 483.7 209.66 482 210C479 206.375 479 206.375 479 203Z" fill="#B1B1B3"/>
<path d="M295 192C295.99 192.33 296.98 192.66 298 193C297.67 195.31 297.34 197.62 297 200C296.34 199.01 295.68 198.02 295 197C294.01 197.99 293.02 198.98 292 200C291.34 199.67 290.68 199.34 290 199C292.75 193.125 292.75 193.125 295 192Z" fill="#9A9A9A"/>
<path d="M91 189C94.3 189 97.6 189 101 189C101.33 189.99 101.66 190.98 102 192C95.25 194.125 95.25 194.125 93 193C93 192.01 93 191.02 93 190C92.34 189.67 91.68 189.34 91 189Z" fill="#7C7D7C"/>
<path d="M115 181C116.98 181.66 118.96 182.32 121 183C121.33 182.34 121.66 181.68 122 181C122.99 181.99 123.98 182.98 125 184C124.01 184 123.02 184 122 184C122 184.66 122 185.32 122 186C119.69 185.67 117.38 185.34 115 185C115 183.68 115 182.36 115 181Z" fill="#E7E7E8"/>
<path d="M116 176C116.66 176.33 117.32 176.66 118 177C117.01 179.31 116.02 181.62 115 184C114.67 183.34 114.34 182.68 114 182C110.37 182 106.74 182 103 182C103 181.67 103 181.34 103 181C104.98 180.67 106.96 180.34 109 180C109 179.67 109 179.34 109 179C110.454 178.536 110.454 178.536 111.938 178.062C114.841 177.305 114.841 177.305 116 176Z" fill="#686868"/>
<path d="M124 181C126.64 182.32 129.28 183.64 132 185C131.67 185.99 131.34 186.98 131 188C128.03 187.01 125.06 186.02 122 185C122.66 183.68 123.32 182.36 124 181Z" fill="#979799"/>
<path d="M119 237C120.255 240.766 119.371 242.372 118 246C115.36 245.01 112.72 244.02 110 243C111.32 242.34 112.64 241.68 114 241C114 241.66 114 242.32 114 243C115.32 242.67 116.64 242.34 118 242C118.33 240.35 118.66 238.7 119 237Z" fill="#545454"/>
<path d="M449 229C449.33 229 449.66 229 450 229C450.247 229.949 450.495 230.898 450.75 231.875C451.686 235.087 451.686 235.087 454.125 236.375C454.744 236.581 455.363 236.787 456 237C452.625 237.125 452.625 237.125 449 237C448.34 236.34 447.68 235.68 447 235C447.556 230.444 447.556 230.444 449 229Z" fill="#C0C2BF"/>
<path d="M65 221C65.66 221 66.32 221 67 221C67 222.32 67 223.64 67 225C67.99 225.33 68.98 225.66 70 226C69.67 227.32 69.34 228.64 69 230C67.68 229.67 66.36 229.34 65 229C65 226.36 65 223.72 65 221Z" fill="#909493"/>
<path d="M140 208C141.114 208.186 142.227 208.371 143.375 208.562C146.826 209.317 146.826 209.317 149 208C148.67 209.65 148.34 211.3 148 213C145.69 212.67 143.38 212.34 141 212C140.67 210.68 140.34 209.36 140 208Z" fill="#9E9C9D"/>
<path d="M284 227C287 228 287 228 288 230C288.04 232.333 288.043 234.667 288 237C287.67 236.34 287.34 235.68 287 235C285.68 235 284.36 235 283 235C283 234.34 283 233.68 283 233C283.66 232.67 284.32 232.34 285 232C284.67 230.35 284.34 228.7 284 227Z" fill="#CBCCC8"/>
<path d="M186 225C186.99 225.33 187.98 225.66 189 226C188.34 228.97 187.68 231.94 187 235C186.34 233.68 185.68 232.36 185 231C184.01 231.495 184.01 231.495 183 232C184.875 226.125 184.875 226.125 186 225Z" fill="#7D7D7D"/>
<path d="M98 226C98.99 226.66 99.98 227.32 101 228C98.5787 230.421 97.1989 230.528 93.875 231.125C92.9649 231.293 92.0548 231.46 91.1172 231.633C90.4185 231.754 89.7198 231.875 89 232C89 231.34 89 230.68 89 230C89.7425 229.711 90.485 229.423 91.25 229.125C93.5674 228.177 95.7792 227.152 98 226Z" fill="#919190"/>
<path d="M197 206C199.64 206 202.28 206 205 206C205 206.99 205 207.98 205 209C202.03 209 199.06 209 196 209C196.33 208.01 196.66 207.02 197 206Z" fill="#F5F5F7"/>
<path d="M516 203C516.33 203.66 516.66 204.32 517 205C517.99 205 518.98 205 520 205C519.67 206.65 519.34 208.3 519 210C517.68 210 516.36 210 515 210C515.33 207.69 515.66 205.38 516 203Z" fill="#B8B8B8"/>
<path d="M219 199C220.32 199 221.64 199 223 199C223.125 201.875 223.125 201.875 223 205C222.34 205.66 221.68 206.32 221 207C218.848 203.772 218.799 202.716 219 199Z" fill="#F6F8F7"/>
<path d="M186 194C186.99 194 187.98 194 189 194C189 196.64 189 199.28 189 202C188.01 202 187.02 202 186 202C185.019 198.947 185.019 197.053 186 194Z" fill="#EFF0F1"/>
<path d="M70 187C71.98 187.66 73.96 188.32 76 189C76 189.33 76 189.66 76 190C74.2984 190.433 74.2984 190.433 72.5625 190.875C71.3869 191.246 70.2112 191.617 69 192C68.67 192.66 68.34 193.32 68 194C67.01 194 66.02 194 65 194C65.66 192.35 66.32 190.7 67 189C67.99 189 68.98 189 70 189C70 188.34 70 187.68 70 187Z" fill="#9B9B9A"/>
<path d="M179 225C180.32 225.66 181.64 226.32 183 227C183 227.99 183 228.98 183 230C182.34 230 181.68 230 181 230C180.67 231.65 180.34 233.3 180 235C179.102 232.307 178.431 229.802 178 227C178.33 226.34 178.66 225.68 179 225Z" fill="#80807E"/>
<path d="M450 204C450.99 204.99 451.98 205.98 453 207C452.67 207.99 452.34 208.98 452 210C450.35 209.67 448.7 209.34 447 209C447.375 207.062 447.375 207.062 448 205C448.66 204.67 449.32 204.34 450 204Z" fill="#B5B5B5"/>
<path d="M105 199C106.98 199.495 106.98 199.495 109 200C109 200.99 109 201.98 109 203C108.34 203 107.68 203 107 203C106.67 203.99 106.34 204.98 106 206C105.01 206.495 105.01 206.495 104 207C104.33 204.36 104.66 201.72 105 199Z" fill="#D1D1D1"/>
<path d="M217 233C217.33 233.66 217.66 234.32 218 235C219.98 235 221.96 235 224 235C224 235.99 224 236.98 224 238C221.03 238 218.06 238 215 238C215.66 237.34 216.32 236.68 217 236C217 235.01 217 234.02 217 233Z" fill="#757775"/>
<path d="M84 207C86.0935 210.402 86.1794 213.053 86 217C85.67 217 85.34 217 85 217C85 215.35 85 213.7 85 212C84.34 212 83.68 212 83 212C82.67 212.99 82.34 213.98 82 215C81.34 213.02 80.68 211.04 80 209C81.32 209 82.64 209 84 209C84 208.34 84 207.68 84 207Z" fill="#4A4A4C"/>
<path d="M122 204C124.64 204.33 127.28 204.66 130 205C130 205.33 130 205.66 130 206C128.855 206.217 128.855 206.217 127.688 206.438C123.79 207.253 121.67 208.076 119 211C119.33 209.35 119.66 207.7 120 206C120.66 206 121.32 206 122 206C122 205.34 122 204.68 122 204Z" fill="#8B8B8E"/>
<path d="M417 200C419.64 200 422.28 200 425 200C424.67 200.99 424.34 201.98 424 203C421.69 203 419.38 203 417 203C417 202.01 417 201.02 417 200Z" fill="#E0E2E0"/>
<path d="M232 194C231.67 194.99 231.34 195.98 231 197C229.35 197 227.7 197 226 197C226.33 196.01 226.66 195.02 227 194C225.68 193.67 224.36 193.34 223 193C226.619 191.659 228.574 192.382 232 194Z" fill="#9D9D9D"/>
<path d="M325 206C326.32 206 327.64 206 329 206C329 206.99 329 207.98 329 209C326.595 210.203 325.05 210.101 322.375 210.062C321.149 210.049 321.149 210.049 319.898 210.035C318.959 210.018 318.959 210.018 318 210C318 209.67 318 209.34 318 209C318.784 208.876 319.567 208.753 320.375 208.625C323.141 208.209 323.141 208.209 325 206Z" fill="#B0B0B1"/>
<path d="M257 192C259.375 192.688 259.375 192.688 262 194C263.312 196.625 263.312 196.625 264 199C262.02 198.01 260.04 197.02 258 196C258 195.34 258 194.68 258 194C257.34 193.67 256.68 193.34 256 193C256.33 192.67 256.66 192.34 257 192Z" fill="#BCBEBD"/>
<path d="M241 227C243.429 230.644 243.162 232.712 243 237C241.68 237.33 240.36 237.66 239 238C238.67 236.35 238.34 234.7 238 233C238.66 233 239.32 233 240 233C240.33 231.02 240.66 229.04 241 227Z" fill="#767676"/>
<path d="M367 230C367.66 230 368.32 230 369 230C369 231.32 369 232.64 369 234C366.69 234.33 364.38 234.66 362 235C362.66 233.68 363.32 232.36 364 231C364.99 231.66 365.98 232.32 367 233C367 232.01 367 231.02 367 230Z" fill="#EFF0EC"/>
<path d="M107 203C111 207.75 111 207.75 111 210C108.03 209.505 108.03 209.505 105 209C105.506 206.831 106 205 107 203Z" fill="#E9E9E9"/>
<path d="M405 199C406.32 199.33 407.64 199.66 409 200C408.67 201.98 408.34 203.96 408 206C407.67 205.34 407.34 204.68 407 204C406.34 204 405.68 204 405 204C405 202.35 405 200.7 405 199Z" fill="#C3C4C3"/>
<path d="M245 193C244.01 193.33 243.02 193.66 242 194C242 194.66 242 195.32 242 196C242.66 196.33 243.32 196.66 244 197C243.01 197.33 242.02 197.66 241 198C241 197.34 241 196.68 241 196C239.68 195.34 238.36 194.68 237 194C240.067 192.138 241.597 191.785 245 193Z" fill="#A5A8A5"/>
<path d="M118 244C119.938 244.812 119.938 244.812 122 246C122.33 246.99 122.66 247.98 123 249C121.02 249.99 121.02 249.99 119 251C118.67 248.69 118.34 246.38 118 244Z" fill="#777777"/>
<path d="M364 225C364.99 225 365.98 225 367 225C367.66 226.65 368.32 228.3 369 230C368.01 230.33 367.02 230.66 366 231C365.34 230.67 364.68 230.34 364 230C364 228.35 364 226.7 364 225Z" fill="#A3A3A2"/>
<path d="M108 208C108.33 208.66 108.66 209.32 109 210C109.66 210.33 110.32 210.66 111 211C112.343 211.987 113.677 212.986 115 214C112.812 214.312 112.812 214.312 110 214C107.188 211.5 107.188 211.5 105 209C105.99 208.67 106.98 208.34 108 208Z" fill="#8A8A8A"/>
<path d="M232 205C232 206.32 232 207.64 232 209C230.02 209 228.04 209 226 209C226.33 208.01 226.66 207.02 227 206C229 205 229 205 232 205Z" fill="#D8D8D8"/>
<path d="M477 200C479.312 199.75 479.312 199.75 482 200C483.812 202 483.812 202 485 204C484.67 204.66 484.34 205.32 484 206C482.68 205.34 481.36 204.68 480 204C480 203.34 480 202.68 480 202C479.01 201.67 478.02 201.34 477 201C477 200.67 477 200.34 477 200Z" fill="#F4F5F6"/>
<path d="M173 225C173.66 225 174.32 225 175 225C175.81 227.915 176.218 229.461 175.062 232.312C174.712 232.869 174.361 233.426 174 234C173.639 232.689 173.286 231.376 172.938 230.062C172.642 228.966 172.642 228.966 172.34 227.848C172.228 227.238 172.116 226.628 172 226C172.33 225.67 172.66 225.34 173 225Z" fill="#999B99"/>
<path d="M110 211C112.64 211 115.28 211 118 211C118 212.32 118 213.64 118 215C115.648 214.401 113.314 213.731 111 213C110.67 212.34 110.34 211.68 110 211Z" fill="#F4F5F4"/>
<path d="M97.5625 209.938C98.7691 209.968 98.7691 209.968 100 210C98.02 210.99 98.02 210.99 96 212C96.33 213.65 96.66 215.3 97 217C96.01 216.67 95.02 216.34 94 216C93.9573 214.334 93.9594 212.666 94 211C95 210 95 210 97.5625 209.938Z" fill="#5A5A5B"/>
<path d="M339 206C340.65 206 342.3 206 344 206C344.33 206.99 344.66 207.98 345 209C342.69 209 340.38 209 338 209C338.33 208.01 338.66 207.02 339 206Z" fill="#D6D7D7"/>
<path d="M298 206C299.98 206 301.96 206 304 206C303.67 207.32 303.34 208.64 303 210C301.35 209.67 299.7 209.34 298 209C298 208.01 298 207.02 298 206Z" fill="#A8AAA9"/>
<path d="M81 202C82.6754 202.286 84.3439 202.618 86 203C82.7882 204.906 80.4612 205.223 76.75 205.125C75.858 205.107 74.9659 205.089 74.0469 205.07C73.0337 205.036 73.0337 205.036 72 205C72 204.67 72 204.34 72 204C74.0508 203.772 76.1016 203.544 78.1523 203.316C80.0114 203.181 80.0114 203.181 81 202Z" fill="#7C807C"/>
<path d="M144 194C146 197 146 197 145.625 199.688C145.419 200.451 145.213 201.214 145 202C144.588 201.546 144.175 201.093 143.75 200.625C141.936 198.94 140.247 198.007 138 197C139.65 197 141.3 197 143 197C143.33 196.01 143.66 195.02 144 194Z" fill="#797979"/>
<path d="M318 194C318.99 194 319.98 194 321 194C321.125 196.875 321.125 196.875 321 200C320.34 200.66 319.68 201.32 319 202C318.67 199.36 318.34 196.72 318 194Z" fill="#F3F3F4"/>
<path d="M295 196C295.33 197.32 295.66 198.64 296 200C293.525 201.485 293.525 201.485 291 203C291.312 200.625 291.312 200.625 292 198C292.99 197.34 293.98 196.68 295 196Z" fill="#F8F8F8"/>
<path d="M130 186C132.938 186.375 132.938 186.375 136 187C136.33 187.66 136.66 188.32 137 189C136.062 191.625 136.062 191.625 135 194C134.67 194 134.34 194 134 194C134 192.02 134 190.04 134 188C132.68 187.67 131.36 187.34 130 187C130 186.67 130 186.34 130 186Z" fill="#F4F4F4"/>
<path d="M72 178C73.98 178 75.96 178 78 178C78.33 179.98 78.66 181.96 79 184C78.67 183.01 78.34 182.02 78 181C76.02 181 74.04 181 72 181C72 180.01 72 179.02 72 178Z" fill="#6E6E6E"/>
<path d="M487 227C487.66 227 488.32 227 489 227C489 228.32 489 229.64 489 231C490.65 231 492.3 231 494 231C491.353 232.461 490.106 233 487 233C487 231.02 487 229.04 487 227Z" fill="#E4E6E2"/>
<path d="M452 227C454 226.957 456 226.959 458 227C459 228 459 228 459.062 230.563C459.042 231.367 459.021 232.171 459 233C458.34 232.67 457.68 232.34 457 232C457 231.01 457 230.02 457 229C455.35 228.67 453.7 228.34 452 228C452 227.67 452 227.34 452 227Z" fill="#BBBCBB"/>
<path d="M64 217C64.99 218.32 65.98 219.64 67 221C66.34 221 65.68 221 65 221C65 223.31 65 225.62 65 228C64.67 228 64.34 228 64 228C63 221.375 63 221.375 63 218C63.33 217.67 63.66 217.34 64 217Z" fill="#494949"/>
<path d="M506 206C507.98 206 509.96 206 512 206C512 206.99 512 207.98 512 209C510.02 209 508.04 209 506 209C506 208.01 506 207.02 506 206Z" fill="#F4F4F4"/>
<path d="M177 201C177.99 201.33 178.98 201.66 180 202C180 203.98 180 205.96 180 208C179.01 207.67 178.02 207.34 177 207C176 204 176 204 177 201Z" fill="#FBFCFD"/>
<path d="M369 231C370.206 233.332 371.165 235.496 372 238C370.68 238 369.36 238 368 238C367.67 236.68 367.34 235.36 367 234C367.66 234 368.32 234 369 234C369 233.01 369 232.02 369 231Z" fill="#7E7E7D"/>
<path d="M71 223C71.66 223.99 72.32 224.98 73 226C73.99 226.66 74.98 227.32 76 228C73.69 228.33 71.38 228.66 69 229C69.506 226.831 69.9998 225 71 223Z" fill="#656867"/>
</svg>
